<svg class="injected-svg" id="svg-baa088c1-a70a-42d4-9147-6c53ac339c82" height="600px" width="600px" viewBox="0 0 540 508" xmlns="http://www.w3.org/2000/svg"><g xmlns="http://www.w3.org/2000/svg" fill="#d68048" id="shape-svg"><title>graphic</title><g ><g><path transform="translate(87, 71) scale(1,1)" d="M217.37,22.56l4.74-4.74a10.43,10.43,0,0,0,0-14.76h0a10.43,10.43,0,0,0-14.76,0L202.61,7.8a10.45,10.45,0,0,0,0,14.76h0A10.45,10.45,0,0,0,217.37,22.56Z"></path><path transform="translate(87, 71) scale(1,1)" d="M87.58,314a10.45,10.45,0,0,0-14.76,0l-7,7.06a10.43,10.43,0,0,0,14.76,14.75l7-7.05A10.43,10.43,0,0,0,87.58,314Z"></path><path transform="translate(87, 71) scale(1,1)" d="M353.06,152.55l-7.05,7a10.44,10.44,0,1,0,14.76,14.76l7.05-7.05a10.44,10.44,0,0,0-14.76-14.76Z"></path><path transform="translate(87, 71) scale(1,1)" d="M31.42,267.54l3.73-3.72a10.44,10.44,0,0,0-14.76-14.76l-3.73,3.72a10.44,10.44,0,1,0,14.76,14.76Z"></path><path transform="translate(87, 71) scale(1,1)" d="M322.11,65.41,309.6,77.92a10.44,10.44,0,0,1-14.76-14.76l11.39-11.39A10.44,10.44,0,0,0,291.47,37L268.3,60.18a10.43,10.43,0,0,1-14.76-14.75l16.91-16.92a10.43,10.43,0,0,0,0-14.76h0a10.45,10.45,0,0,0-14.76,0L208.62,60.82a10.44,10.44,0,0,1-14.76-14.76l1.27-1.26A10.44,10.44,0,0,0,180.37,30L158.58,51.83a10.44,10.44,0,0,1-14.76-14.77l8.36-8.36a10.44,10.44,0,1,0-14.76-14.76L11,140.33A10.44,10.44,0,0,0,25.79,155.1l7.52-7.53a10.44,10.44,0,1,1,14.76,14.77l-45,45a10.44,10.44,0,1,0,14.76,14.76l23.74-23.74a10.44,10.44,0,0,1,14.76,14.76L40.78,228.66a10.45,10.45,0,0,0,0,14.76h0a10.43,10.43,0,0,0,14.76,0l5.68-5.68A10.44,10.44,0,0,1,76,252.5L40.93,287.55a10.44,10.44,0,0,0,14.76,14.76l29.15-29.14a10.43,10.43,0,0,1,14.75,14.76l-8,8a10.44,10.44,0,0,0,14.76,14.76L131.09,286a10.49,10.49,0,0,1,13.79,15.75l-39.64,39.64A10.44,10.44,0,1,0,120,356.1l49.71-49.71a10.43,10.43,0,0,1,14.75,14.76l-28.15,28.16a10.44,10.44,0,0,0,14.76,14.76l49.35-49.36a10.7,10.7,0,0,1,11.18,2.57,10.46,10.46,0,0,1,.14,14.89L221,342.92a10.7,10.7,0,0,0,15.13,15.13l122.7-122.7a10.7,10.7,0,0,0-15.12-15.13l-9.32,9.31a10.47,10.47,0,0,1-14.9-.14,10.69,10.69,0,0,1-2.56-11.17l24.72-24.73a10.43,10.43,0,0,0-14.75-14.76l-12.54,12.54a10.44,10.44,0,0,1-14.76-14.76L359,117.08a10.44,10.44,0,1,0-14.76-14.76l-13.33,13.33a10.49,10.49,0,0,1-15.75-13.79l21.69-21.69a10.44,10.44,0,1,0-14.76-14.76Z"></path><path transform="translate(87, 71) scale(1,1)" d="M84.37,56.22l9.45-9.44A12.4,12.4,0,1,0,76.28,29.24l-9.44,9.45A12.4,12.4,0,0,0,84.37,56.22Z"></path><path transform="translate(87, 71) scale(1,1)" d="M290.9,317.26l-12.06,12.07c-5,5-5.42,13.27-.47,18.38a12.86,12.86,0,0,0,18.34.14l12.07-12.06c5-5,5.41-13.28.47-18.38A12.88,12.88,0,0,0,290.9,317.26Z"></path></g></g></g></svg>